<svg width="60" height="13" viewBox="0 0 60 13" fill="none" xmlns="http://www.w3.org/2000/svg">
<path d="M2.73799 12.8238H0V0.114499H2.73799V5.90989H2.81958L7.73345 0.114499H10.7797L5.93835 5.75135L11.1151 12.8238H7.84225L3.96192 7.51287L2.73799 8.9397V12.8238Z" fill="black"/>
<path d="M20.8794 3.38211V12.8238H18.3228V11.124H18.2684C17.7607 12.3747 16.7906 13 15.3581 13C14.2943 13 13.4451 12.6859 12.8105 12.0576C12.1759 11.4234 11.8586 10.5603 11.8586 9.46816V3.38211H14.5059V8.93089C14.5059 9.55917 14.66 10.0377 14.9683 10.3665C15.2826 10.6953 15.7328 10.8598 16.3191 10.8598C16.9054 10.8598 17.3708 10.6719 17.7153 10.2961C18.0598 9.92028 18.2321 9.41825 18.2321 8.78997V3.38211H20.8794Z" fill="black"/>
<path d="M23.3092 12.8238V5.31978H21.9855V3.42615H23.3092V2.71274C23.3092 1.77326 23.557 1.08627 24.0526 0.651761C24.5542 0.217254 25.3732 0 26.5095 0C27.0293 0 27.4796 0.0381662 27.8604 0.114499V1.81436C27.667 1.77913 27.4282 1.76152 27.1442 1.76152C26.3101 1.76152 25.893 2.10795 25.893 2.80081V3.42615H27.8241V5.31978H25.9565V12.8238H23.3092Z" fill="black"/>
<path d="M32.466 11.1152C33.0523 11.1152 33.5479 10.9508 33.9529 10.622C34.3639 10.2873 34.5694 9.86743 34.5694 9.36247V8.67547L32.5204 8.79878C32.0248 8.83401 31.641 8.95438 31.369 9.15989C31.1031 9.3654 30.9701 9.6355 30.9701 9.97019C30.9701 10.3225 31.1061 10.6014 31.3781 10.8069C31.65 11.0124 32.0127 11.1152 32.466 11.1152ZM31.5956 12.9736C30.6588 12.9736 29.8821 12.7064 29.2656 12.1721C28.6491 11.6378 28.3409 10.9508 28.3409 10.1111C28.3409 9.25384 28.6673 8.58153 29.32 8.09417C29.9728 7.60682 30.9066 7.32791 32.1215 7.25745L34.5694 7.11653V6.49119C34.5694 6.05668 34.4213 5.71612 34.1251 5.46951C33.835 5.2229 33.4391 5.09959 32.9374 5.09959C32.4539 5.09959 32.058 5.20528 31.7498 5.41667C31.4476 5.62805 31.2632 5.91283 31.1967 6.271H28.7761C28.8244 5.34327 29.2324 4.59756 30 4.03387C30.7676 3.46432 31.786 3.17954 33.0553 3.17954C34.3004 3.17954 35.2977 3.46725 36.0471 4.04268C36.7966 4.61811 37.1713 5.38144 37.1713 6.33266V12.8238H34.6147V11.3794H34.5603C34.2943 11.8726 33.8894 12.2631 33.3454 12.5508C32.8014 12.8327 32.2182 12.9736 31.5956 12.9736Z" fill="black"/>
<path d="M38.8849 12.8238V3.38211H41.4415V5.08198H41.4959C41.6652 4.48306 41.9492 4.02507 42.3481 3.70799C42.7471 3.39092 43.2336 3.23238 43.8078 3.23238C44.0858 3.23238 44.3367 3.26468 44.5603 3.32927V5.59282C44.3125 5.493 43.9921 5.44309 43.5993 5.44309C42.9465 5.44309 42.4388 5.62805 42.0762 5.99797C41.7135 6.36789 41.5322 6.8846 41.5322 7.5481V12.8238H38.8849Z" fill="black"/>
<path d="M45.6482 12.8238V3.38211H48.2049V5.09079H48.2593C48.4648 4.51536 48.8153 4.05736 49.311 3.7168C49.8066 3.37624 50.3808 3.20596 51.0335 3.20596C51.7347 3.20596 52.3209 3.37624 52.7924 3.7168C53.2638 4.05149 53.5811 4.5271 53.7443 5.14363H53.7987C54.0163 4.55059 54.3941 4.08085 54.932 3.73442C55.476 3.38211 56.1046 3.20596 56.8178 3.20596C57.7727 3.20596 58.5403 3.49661 59.1206 4.07791C59.7069 4.65921 60 5.42547 60 6.37669V12.8238H57.3527V7.01965C57.3527 6.47358 57.2167 6.05668 56.9447 5.76897C56.6727 5.47538 56.2798 5.32859 55.7661 5.32859C55.2644 5.32859 54.8595 5.49006 54.5512 5.81301C54.249 6.13595 54.0979 6.56165 54.0979 7.09011V12.8238H51.5503V6.94038C51.5503 6.43541 51.4113 6.04201 51.1333 5.76016C50.8552 5.47245 50.4714 5.32859 49.9819 5.32859C49.4802 5.32859 49.0722 5.49593 48.7579 5.83062C48.4497 6.16531 48.2956 6.59688 48.2956 7.12534V12.8238H45.6482Z" fill="black"/>
</svg>
