<svg width="91" height="21" viewBox="0 0 91 21" fill="none" xmlns="http://www.w3.org/2000/svg">
<path d="M4.12891 19.9062H0V0.177734H4.12891V9.17383H4.25195L11.6621 0.177734H16.2559L8.95508 8.92773L16.7617 19.9062H11.8262L5.97461 11.6621L4.12891 13.877V19.9062Z" fill="black"/>
<path d="M31.4863 5.25V19.9062H27.6309V17.2676H27.5488C26.7832 19.209 25.3203 20.1797 23.1602 20.1797C21.556 20.1797 20.2754 19.6921 19.3184 18.7168C18.3613 17.7324 17.8828 16.3926 17.8828 14.6973V5.25H21.875V13.8633C21.875 14.8385 22.1074 15.5814 22.5723 16.0918C23.0462 16.6022 23.7253 16.8574 24.6094 16.8574C25.4935 16.8574 26.1953 16.5658 26.7148 15.9824C27.2344 15.3991 27.4941 14.6198 27.4941 13.6445V5.25H31.4863Z" fill="black"/>
<path d="M35.1504 19.9062V8.25781H33.1543V5.31836H35.1504V4.21094C35.1504 2.7526 35.5241 1.6862 36.2715 1.01172C37.028 0.33724 38.263 0 39.9766 0C40.7604 0 41.4395 0.0592448 42.0137 0.177734V2.81641C41.722 2.76172 41.362 2.73438 40.9336 2.73438C39.6758 2.73438 39.0469 3.27214 39.0469 4.34766V5.31836H41.959V8.25781H39.1426V19.9062H35.1504Z" fill="black"/>
<path d="M48.959 17.2539C49.8431 17.2539 50.5905 16.9987 51.2012 16.4883C51.821 15.9688 52.1309 15.3171 52.1309 14.5332V13.4668L49.041 13.6582C48.2936 13.7129 47.7148 13.8997 47.3047 14.2188C46.9036 14.5378 46.7031 14.957 46.7031 15.4766C46.7031 16.0234 46.9082 16.4564 47.3184 16.7754C47.7285 17.0944 48.2754 17.2539 48.959 17.2539ZM47.6465 20.1387C46.2337 20.1387 45.0625 19.724 44.1328 18.8945C43.2031 18.0651 42.7383 16.9987 42.7383 15.6953C42.7383 14.3646 43.2305 13.321 44.2148 12.5645C45.1992 11.8079 46.6074 11.375 48.4395 11.2656L52.1309 11.0469V10.0762C52.1309 9.40169 51.9076 8.87305 51.4609 8.49023C51.0234 8.10742 50.4264 7.91602 49.6699 7.91602C48.9408 7.91602 48.3438 8.08008 47.8789 8.4082C47.4232 8.73633 47.1452 9.17839 47.0449 9.73438H43.3945C43.4674 8.29427 44.0827 7.13672 45.2402 6.26172C46.3978 5.3776 47.9336 4.93555 49.8477 4.93555C51.7253 4.93555 53.2292 5.38216 54.3594 6.27539C55.4896 7.16862 56.0547 8.35352 56.0547 9.83008V19.9062H52.1992V17.6641H52.1172C51.7161 18.4297 51.1055 19.0358 50.2852 19.4824C49.4648 19.9199 48.5853 20.1387 47.6465 20.1387Z" fill="black"/>
<path d="M58.6387 19.9062V5.25H62.4941V7.88867H62.5762C62.8314 6.95898 63.2598 6.24805 63.8613 5.75586C64.4629 5.26367 65.1966 5.01758 66.0625 5.01758C66.4818 5.01758 66.86 5.06771 67.1973 5.16797V8.68164C66.8236 8.52669 66.3405 8.44922 65.748 8.44922C64.7637 8.44922 63.998 8.73633 63.4512 9.31055C62.9043 9.88477 62.6309 10.6868 62.6309 11.7168V19.9062H58.6387Z" fill="black"/>
<path d="M68.8379 19.9062V5.25H72.6934V7.90234H72.7754C73.0853 7.00911 73.6139 6.29818 74.3613 5.76953C75.1087 5.24089 75.9746 4.97656 76.959 4.97656C78.0163 4.97656 78.9004 5.24089 79.6113 5.76953C80.3223 6.28906 80.8008 7.02734 81.0469 7.98438H81.1289C81.457 7.0638 82.0267 6.33464 82.8379 5.79688C83.6582 5.25 84.6061 4.97656 85.6816 4.97656C87.1217 4.97656 88.2793 5.42773 89.1543 6.33008C90.0384 7.23242 90.4805 8.42188 90.4805 9.89844V19.9062H86.4883V10.8965C86.4883 10.0488 86.2832 9.40169 85.873 8.95508C85.4629 8.49935 84.8704 8.27148 84.0957 8.27148C83.3392 8.27148 82.7285 8.52214 82.2637 9.02344C81.8079 9.52474 81.5801 10.1855 81.5801 11.0059V19.9062H77.7383V10.7734C77.7383 9.98958 77.5286 9.37891 77.1094 8.94141C76.6901 8.49479 76.1113 8.27148 75.373 8.27148C74.6165 8.27148 74.0013 8.53125 73.5273 9.05078C73.0625 9.57031 72.8301 10.2402 72.8301 11.0605V19.9062H68.8379Z" fill="black"/>
</svg>
