<svg width="101" height="144" viewBox="0 0 101 144" fill="none" xmlns="http://www.w3.org/2000/svg">
<path d="M0.0593262 45.1267C0.0593262 32.1384 4.73511 21.488 14.0867 13.1755C23.4382 4.7981 35.3875 0.609375 49.9343 0.609375C63.8967 0.609375 75.3914 4.40845 84.4182 12.0066C93.51 19.6047 98.0559 29.1187 98.0559 40.5483C98.0559 48.4062 95.8479 55.842 91.4319 62.8557C87.0808 69.8044 79.8398 78.3767 69.709 88.5725L34.9329 122.959V123.446H100.199V144H1.4231V127.05L53.1489 75.6167C61.1367 67.4341 66.5269 61.0374 69.3193 56.4265C72.1118 51.8157 73.5081 46.8801 73.5081 41.6199C73.5081 35.7751 71.1702 30.8396 66.4944 26.8132C61.8835 22.7869 56.1038 20.7737 49.155 20.7737C41.8167 20.7737 35.7122 23.0791 30.8416 27.6899C26.0359 32.3008 23.6331 38.0806 23.6331 45.0293V45.4189H0.0593262V45.1267Z" fill="#EAEAEA"/>
</svg>
