<svg width="106" height="147" viewBox="0 0 106 147" fill="none" xmlns="http://www.w3.org/2000/svg">
<path d="M34.6665 81.364V62.4661H51.6162C58.8247 62.4661 64.6694 60.4854 69.1504 56.5239C73.6313 52.4976 75.8718 47.3347 75.8718 41.0354C75.8718 34.801 73.7288 29.833 69.4426 26.1313C65.2214 22.4297 59.2468 20.5789 51.5188 20.5789C44.3103 20.5789 38.4331 22.5596 33.8872 26.521C29.3413 30.4175 26.8086 35.6453 26.2891 42.2043H2.91016C3.62451 29.5408 8.46265 19.4424 17.4246 11.9092C26.4514 4.37598 38.2058 0.609375 52.6877 0.609375C66.5852 0.609375 77.95 4.05127 86.782 10.9351C95.614 17.8188 100.03 26.7158 100.03 37.626C100.03 46.2632 97.3674 53.5691 92.0422 59.5437C86.782 65.4534 79.7683 69.155 71.0012 70.6487V71.2332C81.5867 72.0125 89.9966 75.4543 96.231 81.5588C102.53 87.5984 105.68 95.4888 105.68 105.23C105.68 117.569 100.647 127.602 90.5811 135.33C80.5801 142.993 67.8516 146.825 52.3955 146.825C37.0693 146.825 24.698 142.993 15.2815 135.33C5.86499 127.602 0.832031 117.439 0.182617 104.84H24.146C24.7305 111.334 27.5554 116.53 32.6208 120.426C37.6863 124.323 44.3428 126.271 52.5903 126.271C60.708 126.271 67.332 124.225 72.4624 120.134C77.5928 116.043 80.158 110.75 80.158 104.256C80.158 97.1772 77.6252 91.5923 72.5598 87.501C67.5593 83.4097 60.708 81.364 52.0059 81.364H34.6665Z" fill="#EAEAEA"/>
</svg>
