<svg width="314" height="785" viewBox="0 0 314 785" fill="none" xmlns="http://www.w3.org/2000/svg">
<path d="M47.7955 330.347C58.5359 292.517 81.7051 259.407 113.567 236.356C145.428 213.306 184.125 201.659 223.416 203.294C262.708 204.928 300.303 219.749 330.14 245.366C359.977 270.984 380.316 305.904 387.877 344.495C395.438 383.087 389.78 423.1 371.817 458.083C353.853 493.065 324.63 520.978 288.86 537.319C253.091 553.66 212.86 557.476 174.656 548.154C136.451 538.831 102.501 516.912 78.2785 485.932L122.52 451.342C138.969 472.38 162.025 487.265 187.969 493.596C213.913 499.927 241.234 497.335 265.525 486.238C289.815 475.141 309.661 456.186 321.86 432.429C334.059 408.673 337.901 381.5 332.766 355.293C327.632 329.085 313.82 305.371 293.558 287.975C273.295 270.578 247.765 260.514 221.082 259.404C194.4 258.293 168.121 266.203 146.484 281.856C124.847 297.51 109.113 319.994 101.819 345.685L47.7955 330.347Z" fill="#F7F7F7"/>
<g clip-path="url(#clip0_45_757)">
<path d="M308.873 384.206C303.018 376.635 294.184 371.435 282.369 368.609C297.414 360.935 304.025 347.911 302.21 329.533C301.603 322.869 299.762 317.094 296.681 312.199C293.598 307.302 289.438 303.366 284.184 300.388C278.935 297.406 273.226 295.136 267.07 293.571C260.912 292.007 253.843 290.87 245.867 290.164V252H222.547V289.104C218.508 289.104 212.35 289.205 204.072 289.407V252H180.748V290.164C177.415 290.266 172.519 290.317 166.058 290.317L133.952 290.164V315.002H150.762C158.435 315.002 162.928 318.435 164.24 325.3V368.766C165.251 368.766 166.058 368.818 166.664 368.918H164.24V429.797C163.433 434.945 160.506 437.521 155.457 437.521H138.649L133.953 465.236H164.243C166.161 465.236 168.936 465.262 172.572 465.307C176.206 465.358 178.931 465.384 180.749 465.384V504.002H204.077V465.838C208.316 465.941 214.474 465.991 222.551 465.991V504.002H245.872V465.384C254.153 464.981 261.498 464.227 267.906 463.113C274.317 461.999 280.452 460.26 286.307 457.885C292.161 455.514 297.057 452.559 300.994 449.025C304.933 445.495 308.186 441 310.765 435.547C313.336 430.094 314.978 423.784 315.683 416.614C317.001 402.583 314.728 391.779 308.873 384.206ZM204.525 316.663C205.232 316.663 207.226 316.638 210.508 316.587C213.791 316.535 216.515 316.485 218.686 316.434C220.857 316.384 223.785 316.511 227.472 316.813C231.157 317.116 234.261 317.521 236.784 318.025C239.308 318.529 242.087 319.362 245.113 320.523C248.144 321.683 250.566 323.098 252.381 324.763C254.2 326.429 255.739 328.55 256.999 331.125C258.262 333.699 258.894 336.652 258.894 339.983C258.894 342.81 258.44 345.386 257.533 347.709C256.627 350.031 255.26 351.975 253.445 353.54C251.629 355.105 249.758 356.469 247.839 357.629C245.923 358.79 243.472 359.724 240.495 360.43C237.518 361.137 234.918 361.693 232.698 362.096C230.477 362.5 227.701 362.778 224.369 362.929C221.036 363.08 218.511 363.183 216.795 363.233C215.078 363.282 212.732 363.282 209.752 363.233C206.772 363.183 205.033 363.156 204.527 363.156V316.663H204.525V316.663ZM268.21 419.796C267.249 422.119 266.014 424.14 264.5 425.857C262.984 427.571 260.989 429.087 258.517 430.397C256.045 431.712 253.645 432.77 251.325 433.578C249.001 434.389 246.199 435.092 242.92 435.7C239.635 436.306 236.759 436.732 234.283 436.986C231.811 437.24 228.859 437.441 225.425 437.593C221.993 437.742 219.316 437.819 217.399 437.819C215.48 437.819 213.056 437.791 210.128 437.742C207.199 437.695 205.333 437.669 204.524 437.669V386.479C205.331 386.479 207.729 386.429 211.718 386.326C215.708 386.225 218.962 386.177 221.486 386.177C224.01 386.177 227.495 386.326 231.939 386.631C236.378 386.932 240.114 387.385 243.146 387.99C246.174 388.597 249.478 389.53 253.065 390.793C256.648 392.055 259.552 393.594 261.774 395.411C263.995 397.232 265.862 399.55 267.376 402.378C268.894 405.204 269.65 408.436 269.65 412.072C269.65 414.901 269.171 417.472 268.21 419.796Z" fill="#F7F7F7"/>
</g>
<path d="M239.433 124.927C236.532 135.148 236.084 145.91 238.127 156.337C240.17 166.764 244.645 176.562 251.19 184.932L304.36 143.36L239.433 124.927Z" fill="#F7F7F7"/>
<path d="M208.624 632.473C207.875 654.923 212.438 677.232 221.94 697.586C231.442 717.939 245.615 735.761 263.306 749.603L351.227 637.227L208.624 632.473Z" fill="#F7F7F7"/>
<path d="M177.666 138.677C184.524 130.561 189.369 120.941 191.807 110.599C194.245 100.257 194.206 89.4857 191.695 79.1615L126.114 95.1143L177.666 138.677Z" fill="#F7F7F7"/>
<defs>
<clipPath id="clip0_45_757">
<rect width="252" height="252" fill="white" transform="translate(99 252)"/>
</clipPath>
</defs>
</svg>
