<svg width="311" height="785" viewBox="0 0 311 785" fill="none" xmlns="http://www.w3.org/2000/svg">
<path d="M135.043 542.594C95.6242 554.898 53.2056 553.58 14.6278 538.855C-23.9499 524.129 -56.438 496.853 -77.5971 461.426C-98.7563 425.999 -107.353 384.485 -102.001 343.58C-96.6492 302.674 -77.6605 264.762 -48.0974 235.956C-18.5342 207.151 19.8802 189.131 60.9508 184.804C102.021 180.476 143.354 190.093 178.284 212.103C213.213 234.113 239.703 267.233 253.481 306.123C267.259 345.012 267.523 387.404 254.229 426.462L135.496 386.139C139.719 373.733 139.635 360.269 135.259 347.916C130.882 335.564 122.469 325.044 111.374 318.053C100.28 311.062 87.1514 308.008 74.1064 309.382C61.0613 310.757 48.86 316.48 39.47 325.63C30.08 334.779 24.0487 346.821 22.3488 359.814C20.649 372.806 23.3795 385.992 30.1002 397.244C36.8208 408.497 47.1398 417.161 59.3931 421.838C71.6463 426.515 85.1195 426.933 97.6399 423.025L135.043 542.594Z" fill="#F7F7F7"/>
<path d="M-28.2833 774.754C0.579705 776.751 29.507 771.913 56.1445 760.633C82.7821 749.354 106.377 731.951 125.01 709.842L51.9307 648.388C42.983 659.005 31.6524 667.362 18.8608 672.778C6.06924 678.195 -7.82186 680.518 -21.6821 679.559L-28.2833 774.754Z" fill="#F7F7F7"/>
<path d="M90.6978 29.582C63.0177 21.1721 33.5715 19.9656 4.75519 26.0607C-24.0611 32.1559 -51.4332 45.3804 -75.1338 64.6583L-19.1049 145.504C-7.72365 136.247 5.42068 129.896 19.2585 126.969C33.0963 124.042 47.2367 124.622 60.5289 128.66L90.6978 29.582Z" fill="#F7F7F7"/>
<path d="M112.25 369.528C110.021 366.629 106.658 364.638 102.162 363.555C107.888 360.616 110.405 355.628 109.714 348.59C109.483 346.038 108.782 343.826 107.609 341.951C106.436 340.076 104.852 338.569 102.852 337.428C100.854 336.286 98.6811 335.417 96.338 334.818C93.9942 334.218 91.3034 333.783 88.2673 333.513V318.897H79.3907V333.107C77.8536 333.107 75.5095 333.145 72.3585 333.223V318.897H63.4807V333.513C62.2121 333.552 60.3485 333.571 57.8891 333.571L45.6685 333.513V343.025H52.0667C54.9875 343.025 56.6976 344.34 57.1971 346.969V363.615C57.582 363.615 57.8891 363.635 58.1198 363.674H57.1971V386.989C56.89 388.96 55.7757 389.947 53.854 389.947H47.4561L45.6689 400.561H57.1981C57.9284 400.561 58.9846 400.571 60.3687 400.588C61.7519 400.608 62.7891 400.617 63.4811 400.617V415.407H72.3603V400.791C73.974 400.831 76.3181 400.85 79.3925 400.85V415.407H88.2694V400.617C91.4213 400.463 94.2169 400.175 96.6562 399.748C99.0966 399.321 101.432 398.655 103.66 397.746C105.889 396.838 107.752 395.706 109.251 394.353C110.75 393 111.988 391.279 112.97 389.191C113.948 387.102 114.574 384.686 114.842 381.94C115.344 376.567 114.478 372.429 112.25 369.528ZM72.5311 343.661C72.8003 343.661 73.5592 343.652 74.8082 343.632C76.0578 343.612 77.095 343.593 77.9212 343.574C78.7476 343.554 79.8622 343.603 81.2654 343.719C82.6681 343.835 83.8496 343.99 84.8101 344.183C85.7706 344.376 86.8284 344.695 87.9802 345.14C89.1341 345.584 90.0558 346.125 90.7468 346.763C91.4391 347.401 92.025 348.214 92.5046 349.2C92.9855 350.186 93.2258 351.316 93.2258 352.592C93.2258 353.675 93.0532 354.661 92.7077 355.551C92.3628 356.44 91.8427 357.185 91.1518 357.784C90.4607 358.384 89.7483 358.906 89.018 359.35C88.2885 359.795 87.3557 360.153 86.2224 360.423C85.0893 360.694 84.0998 360.906 83.2548 361.061C82.4092 361.216 81.3527 361.322 80.0843 361.38C78.8157 361.438 77.8546 361.477 77.2016 361.496C76.5481 361.515 75.6548 361.515 74.5207 361.496C73.3864 361.477 72.7244 361.467 72.5317 361.467V343.661H72.5311V343.661ZM96.7721 383.158C96.406 384.048 95.936 384.822 95.3599 385.48C94.7829 386.136 94.0235 386.717 93.0824 387.219C92.1415 387.722 91.2279 388.127 90.3448 388.437C89.4604 388.747 88.3935 389.016 87.1458 389.249C85.8952 389.481 84.8006 389.645 83.8581 389.742C82.917 389.839 81.7934 389.916 80.4863 389.974C79.1801 390.031 78.1611 390.061 77.4312 390.061C76.7009 390.061 75.7784 390.05 74.6639 390.031C73.5488 390.013 72.8384 390.003 72.5307 390.003V370.399C72.8378 370.399 73.7507 370.38 75.269 370.341C76.7875 370.302 78.0262 370.283 78.9871 370.283C79.9478 370.283 81.2741 370.341 82.9657 370.457C84.6556 370.573 86.0777 370.746 87.2316 370.978C88.3841 371.21 89.6417 371.567 91.007 372.051C92.3709 372.534 93.4763 373.124 94.3221 373.82C95.1677 374.517 95.8782 375.405 96.4545 376.488C97.0321 377.57 97.3202 378.808 97.3202 380.2C97.32 381.284 97.1377 382.268 96.7721 383.158Z" fill="#F7F7F7"/>
</svg>
