<svg width="24" height="24" viewBox="0 0 24 24" fill="none" xmlns="http://www.w3.org/2000/svg">
<path d="M20.25 0H3.75C1.67893 0 0 1.67893 0 3.75V20.25C0 22.3211 1.67893 24 3.75 24H20.25C22.3211 24 24 22.3211 24 20.25V3.75C24 1.67893 22.3211 0 20.25 0Z" fill="#29AD93"/>
<path fill-rule="evenodd" clip-rule="evenodd" d="M17 12C17 14.7614 14.7614 17 12 17C9.23858 17 7 14.7614 7 12C7 9.23858 9.23858 7 12 7C14.7614 7 17 9.23858 17 12ZM12.1792 10.6912C11.6928 10.8935 10.7209 11.3122 9.26328 11.9472C9.02659 12.0413 8.9026 12.1334 8.89131 12.2235C8.87223 12.3756 9.06279 12.4355 9.32227 12.5171C9.35757 12.5282 9.39414 12.5397 9.43163 12.5519C9.68692 12.6349 10.0303 12.732 10.2089 12.7359C10.3708 12.7394 10.5515 12.6726 10.7511 12.5356C12.113 11.6163 12.816 11.1516 12.8601 11.1416C12.8913 11.1345 12.9344 11.1256 12.9636 11.1516C12.9929 11.1776 12.99 11.2268 12.9869 11.24C12.968 11.3205 12.22 12.0159 11.833 12.3757C11.7123 12.4879 11.6267 12.5675 11.6092 12.5857C11.57 12.6264 11.53 12.6649 11.4916 12.7019C11.2545 12.9306 11.0766 13.102 11.5015 13.382C11.7057 13.5166 11.8691 13.6278 12.032 13.7388C12.2101 13.86 12.3876 13.981 12.6173 14.1315C12.6759 14.1699 12.7318 14.2098 12.7862 14.2486C12.9934 14.3962 13.1795 14.5289 13.4094 14.5078C13.543 14.4955 13.681 14.3698 13.7511 13.9952C13.9167 13.1097 14.2423 11.191 14.3176 10.4004C14.3242 10.3311 14.3159 10.2425 14.3092 10.2036C14.3026 10.1647 14.2886 10.1092 14.2381 10.0682C14.1782 10.0196 14.0857 10.0093 14.0443 10.01C13.8562 10.0134 13.5677 10.1137 12.1792 10.6912Z" fill="white"/>
</svg>
